<svg width="15" height="14" viewBox="0 0 15 14" fill="none" xmlns="http://www.w3.org/2000/svg">
<path d="M6.068 9.27733L5.59375 10.9375L5.1195 9.27733C4.9949 8.84142 4.77231 8.46318 4.45173 8.1426C4.13116 7.82202 3.75291 7.59943 3.317 7.47483L1.65625 7L3.31642 6.52575C3.75233 6.40115 4.13057 6.17856 4.45115 5.85798C4.77173 5.5374 4.99432 5.15916 5.11892 4.72325L5.59375 3.0625L6.068 4.72267C6.1926 5.15858 6.41519 5.53682 6.73577 5.8574C7.05635 6.17798 7.43459 6.40057 7.8705 6.52517L9.53125 7L7.87108 7.47425C7.43517 7.59885 7.05693 7.82144 6.73635 8.14202C6.41577 8.46259 6.1926 8.84142 6.068 9.27733ZM10.9948 5.08375L10.8437 5.6875L10.6927 5.08375C10.6046 4.73108 10.432 4.42619 10.175 4.1691C9.91803 3.91201 9.61322 3.73933 9.26058 3.65108L8.65625 3.5L9.26058 3.34892C9.61322 3.26067 9.91803 3.08799 10.175 2.8309C10.432 2.57381 10.6046 2.26892 10.6927 1.91625L10.8437 1.3125L10.9948 1.91625C11.083 2.269 11.2556 2.57392 11.5127 2.83103C11.7698 3.08813 12.0748 3.26076 12.4275 3.34892L13.0312 3.5L12.4275 3.65108C12.0748 3.73924 11.7698 3.91187 11.5127 4.16897C11.2556 4.42607 11.083 4.731 10.9948 5.08375ZM10.1986 11.9974L9.96875 12.6875L9.73892 11.9974C9.6736 11.8015 9.56791 11.6305 9.42185 11.4844C9.27579 11.3383 9.10479 11.2327 8.90883 11.1673L8.21875 10.9375L8.90883 10.7077C9.10479 10.6423 9.27579 10.5367 9.42185 10.3906C9.56791 10.2445 9.6736 10.0735 9.73892 9.87758L9.96875 9.1875L10.1986 9.87758C10.2639 10.0735 10.3696 10.2445 10.5156 10.3906C10.6617 10.5367 10.8327 10.6423 11.0287 10.7077L11.7187 10.9375L11.0287 11.1673C10.8327 11.2327 10.6617 11.3383 10.5156 11.4844C10.3696 11.6305 10.2639 11.8015 10.1986 11.9974Z" stroke="#FDE047" stroke-width="0.875" stroke-linejoin="round"/>
</svg>
