<svg width="24" height="24" viewBox="0 0 24 24" fill="none" xmlns="http://www.w3.org/2000/svg">
<path d="M12 0C5.37257 0 0 5.37257 0 12V12.018C0 18.6454 5.35457 24 11.982 24H12C18.6274 24 24 18.6454 24 12.018V12C24 5.37257 18.6454 0 12.018 0H12Z" fill="white" fill-opacity="0.1"/>
<path d="M0 12C0 5.37257 5.37257 0 12 0C18.6274 0 24 5.37257 24 12C24 18.6274 18.6274 24 12 24C5.37257 24 0 18.6274 0 12ZM12 0.413793C5.6011 0.413793 0.413793 5.6011 0.413793 12C0.413793 18.3989 5.6011 23.5862 12 23.5862C18.3989 23.5862 23.5862 18.3989 23.5862 12C23.5862 5.6011 18.3989 0.413793 12 0.413793Z" fill="white" fill-opacity="0.2"/>
<mask id="mask0_38_200" style="mask-type:luminance" maskUnits="userSpaceOnUse" x="5" y="5" width="14" height="14">
<path d="M5.37939 5.37931H18.6208V18.6207H5.37939V5.37931Z" fill="white"/>
</mask>
<g mask="url(#mask0_38_200)">
<path fill-rule="evenodd" clip-rule="evenodd" d="M7.03467 8.68966C7.03467 8.2326 7.19626 7.84247 7.51946 7.51927C7.84265 7.19608 8.23278 7.03448 8.68984 7.03448H9.93122C10.3883 7.03448 10.7784 7.19608 11.1016 7.51927C11.4248 7.84247 11.5864 8.2326 11.5864 8.68966V9.93104C11.5864 10.3881 11.4248 10.7782 11.1016 11.1014C10.7784 11.4246 10.3883 11.5862 9.93122 11.5862H8.68984C8.23278 11.5862 7.84265 11.4246 7.51946 11.1014C7.19626 10.7782 7.03467 10.3881 7.03467 9.93104V8.68966ZM12.414 8.68966C12.414 8.2326 12.5756 7.84247 12.8988 7.51927C13.222 7.19608 13.6121 7.03448 14.0692 7.03448H15.3105C15.7676 7.03448 16.1577 7.19608 16.4809 7.51927C16.8041 7.84246 16.9657 8.23259 16.9657 8.68966V9.93104C16.9657 10.3881 16.8041 10.7782 16.4809 11.1014C16.1577 11.4246 15.7676 11.5862 15.3105 11.5862H14.0692C13.6121 11.5862 13.222 11.4246 12.8988 11.1014C12.5756 10.7782 12.414 10.3881 12.414 9.93104V8.68966ZM7.86225 8.68966V9.93104C7.86225 10.1596 7.94305 10.3546 8.10465 10.5162C8.26624 10.6778 8.46131 10.7586 8.68984 10.7586H9.93122C10.1598 10.7586 10.3548 10.6778 10.5164 10.5162C10.678 10.3546 10.7588 10.1596 10.7588 9.93104V8.68966C10.7588 8.46112 10.678 8.26606 10.5164 8.10447C10.3548 7.94287 10.1598 7.86207 9.93122 7.86207H8.68984C8.46131 7.86207 8.26624 7.94287 8.10465 8.10447C7.94305 8.26606 7.86225 8.46112 7.86225 8.68966ZM13.2416 8.68966V9.93104C13.2416 10.1596 13.3224 10.3546 13.484 10.5162C13.6456 10.6778 13.8406 10.7586 14.0692 10.7586H15.3105C15.5391 10.7586 15.7341 10.6778 15.8957 10.5162C16.0573 10.3546 16.1381 10.1596 16.1381 9.93104V8.68966C16.1381 8.46112 16.0573 8.26606 15.8957 8.10447C15.7341 7.94287 15.5391 7.86207 15.3105 7.86207H14.0692C13.8406 7.86207 13.6456 7.94287 13.484 8.10447C13.3224 8.26606 13.2416 8.46112 13.2416 8.68966ZM7.03467 14.069C7.03467 13.6119 7.19626 13.2218 7.51946 12.8986C7.84265 12.5754 8.23278 12.4138 8.68984 12.4138H9.93122C10.3883 12.4138 10.7784 12.5754 11.1016 12.8986C11.4248 13.2218 11.5864 13.6119 11.5864 14.069V15.3103C11.5864 15.7674 11.4248 16.1575 11.1016 16.4807C10.7784 16.8039 10.3883 16.9655 9.93122 16.9655H8.68984C8.23278 16.9655 7.84265 16.8039 7.51946 16.4807C7.19626 16.1575 7.03467 15.7674 7.03467 15.3103V14.069ZM12.414 14.069C12.414 13.6119 12.5756 13.2218 12.8988 12.8986C13.222 12.5754 13.6121 12.4138 14.0692 12.4138H15.3105C15.7676 12.4138 16.1577 12.5754 16.4809 12.8986C16.8041 13.2218 16.9657 13.6119 16.9657 14.069V15.3103C16.9657 15.7674 16.8041 16.1575 16.4809 16.4807C16.1577 16.8039 15.7676 16.9655 15.3105 16.9655H14.0692C13.6121 16.9655 13.222 16.8039 12.8988 16.4807C12.5756 16.1575 12.414 15.7674 12.414 15.3103V14.069ZM7.86225 14.069V15.3103C7.86225 15.5389 7.94305 15.7339 8.10465 15.8955C8.26624 16.0571 8.46131 16.1379 8.68984 16.1379H9.93122C10.1598 16.1379 10.3548 16.0571 10.5164 15.8955C10.678 15.7339 10.7588 15.5389 10.7588 15.3103V14.069C10.7588 13.8404 10.678 13.6454 10.5164 13.4838C10.3548 13.3222 10.1598 13.2414 9.93122 13.2414H8.68984C8.46131 13.2414 8.26624 13.3222 8.10465 13.4838C7.94305 13.6454 7.86225 13.8404 7.86225 14.069ZM13.2416 14.069V15.3103C13.2416 15.5389 13.3224 15.7339 13.484 15.8955C13.6456 16.0571 13.8406 16.1379 14.0692 16.1379H15.3105C15.5391 16.1379 15.7341 16.0571 15.8957 15.8955C16.0573 15.7339 16.1381 15.5389 16.1381 15.3103V14.069C16.1381 13.8404 16.0573 13.6454 15.8957 13.4838C15.7341 13.3222 15.5391 13.2414 15.3105 13.2414H14.0692C13.8406 13.2414 13.6456 13.3222 13.484 13.4838C13.3224 13.6454 13.2416 13.8404 13.2416 14.069Z" fill="white"/>
</g>
</svg>
