<svg width="21" height="21" viewBox="0 0 21 21" fill="none" xmlns="http://www.w3.org/2000/svg">
<path d="M3.96875 5.5C3.96875 4.98223 4.15181 4.54029 4.51792 4.17417C4.88404 3.80806 5.32598 3.625 5.84375 3.625H7.71875C8.23652 3.625 8.67846 3.80806 9.04457 4.17417C9.41069 4.54029 9.59375 4.98223 9.59375 5.5V7.375C9.59375 7.89277 9.41069 8.33471 9.04457 8.70083C8.67846 9.06694 8.23652 9.25 7.71875 9.25H5.84375C5.32598 9.25 4.88404 9.06694 4.51792 8.70082C4.15181 8.33471 3.96875 7.89277 3.96875 7.375V5.5ZM3.96875 13.625C3.96875 13.1072 4.15181 12.6653 4.51792 12.2992C4.88404 11.9331 5.32598 11.75 5.84375 11.75H7.71875C8.23652 11.75 8.67846 11.9331 9.04457 12.2992C9.41069 12.6653 9.59375 13.1072 9.59375 13.625V15.5C9.59375 16.0178 9.41069 16.4597 9.04457 16.8258C8.67846 17.1919 8.23652 17.375 7.71875 17.375H5.84375C5.32598 17.375 4.88404 17.1919 4.51792 16.8258C4.15181 16.4597 3.96875 16.0178 3.96875 15.5V13.625ZM12.0937 5.5C12.0937 4.98223 12.2768 4.54029 12.6429 4.17417C13.009 3.80806 13.451 3.625 13.9687 3.625H15.8437C16.3615 3.625 16.8035 3.80806 17.1696 4.17417C17.5357 4.54029 17.7187 4.98223 17.7187 5.5V7.375C17.7187 7.89277 17.5357 8.33471 17.1696 8.70082C16.8035 9.06694 16.3615 9.25 15.8437 9.25H13.9687C13.451 9.25 13.009 9.06694 12.6429 8.70082C12.2768 8.33471 12.0937 7.89277 12.0937 7.375V5.5ZM12.0937 13.625C12.0937 13.1072 12.2768 12.6653 12.6429 12.2992C13.009 11.9331 13.451 11.75 13.9687 11.75H15.8437C16.3615 11.75 16.8035 11.9331 17.1696 12.2992C17.5357 12.6653 17.7187 13.1072 17.7187 13.625V15.5C17.7187 16.0178 17.5357 16.4597 17.1696 16.8258C16.8035 17.1919 16.3615 17.375 15.8437 17.375H13.9687C13.451 17.375 13.009 17.1919 12.6429 16.8258C12.2768 16.4597 12.0937 16.0178 12.0937 15.5V13.625Z" stroke="white" stroke-opacity="0.701961" stroke-width="1.25" stroke-linejoin="round"/>
</svg>
