<svg width="20" height="20" viewBox="0 0 20 20" fill="none" xmlns="http://www.w3.org/2000/svg">
<path d="M8.125 13.75H5.625C4.58947 13.75 3.70558 13.3839 2.97335 12.6516C2.24112 11.9194 1.875 11.0355 1.875 10C1.875 8.96447 2.24112 8.08058 2.97335 7.34835C3.70558 6.61612 4.58947 6.25 5.625 6.25H8.125M11.875 6.25H14.375C15.4105 6.25 16.2944 6.61612 17.0267 7.34835C17.7589 8.08058 18.125 8.96447 18.125 10C18.125 11.0355 17.7589 11.9194 17.0266 12.6516C16.2944 13.3839 15.4105 13.75 14.375 13.75H11.875M6.37852 10H13.6996" stroke="white" stroke-width="1.40625" stroke-linecap="round" stroke-linejoin="round"/>
</svg>
