<svg width="16" height="16" viewBox="0 0 16 16" fill="none" xmlns="http://www.w3.org/2000/svg">
<path d="M13.2 12.8H2.8C2.58 12.8 2.4 12.98 2.4 13.2V14C2.4 14.22 2.58 14.4 2.8 14.4H13.2C13.42 14.4 13.6 14.22 13.6 14V13.2C13.6 12.98 13.42 12.8 13.2 12.8ZM14.8 4.80001C14.1375 4.80001 13.6 5.33751 13.6 6.00001C13.6 6.17751 13.64 6.34251 13.71 6.49501L11.9 7.58001C11.515 7.81001 11.0175 7.68001 10.795 7.29001L8.7575 3.72501C9.025 3.50501 9.2 3.17501 9.2 2.80001C9.2 2.13751 8.6625 1.60001 8 1.60001C7.3375 1.60001 6.8 2.13751 6.8 2.80001C6.8 3.17501 6.975 3.50501 7.2425 3.72501L5.205 7.29001C4.9825 7.68001 4.4825 7.81001 4.1 7.58001L2.2925 6.49501C2.36 6.34501 2.4025 6.17751 2.4025 6.00001C2.4025 5.33751 1.865 4.80001 1.2025 4.80001C0.54 4.80001 0 5.33751 0 6.00001C0 6.66251 0.5375 7.20001 1.2 7.20001C1.265 7.20001 1.33 7.19001 1.3925 7.18001L3.2 12H12.8L14.6075 7.18001C14.67 7.19001 14.735 7.20001 14.8 7.20001C15.4625 7.20001 16 6.66251 16 6.00001C16 5.33751 15.4625 4.80001 14.8 4.80001Z" fill="#B45309"/>
</svg>
