<svg width="20" height="20" viewBox="0 0 20 20" fill="none" xmlns="http://www.w3.org/2000/svg">
<path d="M17.6707 2.3293C17.3619 2.02048 16.9891 1.86607 16.5523 1.86607C16.1156 1.86607 15.7428 2.02048 15.434 2.3293L7.1875 11.5133C8.08906 11.6969 8.98906 12.5793 9.11172 13.4375L17.6707 4.56601C17.9795 4.25718 18.1339 3.8844 18.1339 3.44765C18.1339 3.01091 17.9795 2.63813 17.6707 2.3293ZM5.39062 13.125C4.22344 13.125 3.28125 14.082 3.28125 15.268C3.28125 16.2035 2.46563 16.6965 1.875 16.6965C2.52187 17.568 3.62578 18.125 4.6875 18.125C6.24141 18.125 7.5 16.8465 7.5 15.268C7.5 14.082 6.55781 13.125 5.39062 13.125Z" stroke="white" stroke-width="1.25" stroke-linejoin="round"/>
</svg>
