<svg width="20" height="20" viewBox="0 0 20 20" fill="none" xmlns="http://www.w3.org/2000/svg">
<path d="M10 4.0625V6.25M10 4.0625C10 3.45844 10.2136 2.94284 10.6407 2.5157C11.0678 2.08857 11.5834 1.875 12.1875 1.875C12.7916 1.875 13.3072 2.08857 13.7343 2.5157C14.1614 2.94284 14.375 3.45844 14.375 4.0625C14.375 4.66656 14.1614 5.18216 13.7343 5.6093C13.3072 6.03643 12.7916 6.25 12.1875 6.25H10M10 4.0625C10 3.45844 9.78643 2.94284 9.3593 2.5157C8.93216 2.08857 8.41656 1.875 7.8125 1.875C7.20844 1.875 6.69284 2.08857 6.2657 2.5157C5.83857 2.94284 5.625 3.45844 5.625 4.0625C5.625 4.66656 5.83857 5.18216 6.2657 5.6093C6.69284 6.03643 7.20844 6.25 7.8125 6.25H10" stroke="white" stroke-width="1.25"/>
<path d="M2.5 7.5C2.5 6.80964 3.05964 6.25 3.75 6.25H16.25C16.9404 6.25 17.5 6.80964 17.5 7.5V9.375C17.5 10.0654 16.9404 10.625 16.25 10.625H3.75C3.05964 10.625 2.5 10.0654 2.5 9.375V7.5Z" stroke="white" stroke-width="1.25" stroke-linejoin="round"/>
<path d="M16.25 10.625V16.25C16.25 16.7678 16.0669 17.2097 15.7008 17.5758C15.3347 17.9419 14.8928 18.125 14.375 18.125H5.625C5.10723 18.125 4.66529 17.9419 4.29917 17.5758C3.93306 17.2097 3.75 16.7678 3.75 16.25V10.625M10 6.25V18.125" stroke="white" stroke-width="1.25" stroke-linecap="round" stroke-linejoin="round"/>
</svg>
