<svg width="20" height="21" viewBox="0 0 20 21" fill="none" xmlns="http://www.w3.org/2000/svg">
<path d="M18.1711 9.20384H17.4998V9.16926H9.99984V12.5026H14.7094C14.0223 14.443 12.1761 15.8359 9.99984 15.8359C7.23859 15.8359 4.99984 13.5972 4.99984 10.8359C4.99984 8.07468 7.23859 5.83593 9.99984 5.83593C11.2744 5.83593 12.434 6.31676 13.3169 7.10218L15.674 4.74509C14.1857 3.35801 12.1948 2.50259 9.99984 2.50259C5.39775 2.50259 1.6665 6.23384 1.6665 10.8359C1.6665 15.438 5.39775 19.1693 9.99984 19.1693C14.6019 19.1693 18.3332 15.438 18.3332 10.8359C18.3332 10.2772 18.2757 9.73176 18.1711 9.20384Z" fill="#FFC107"/>
<path d="M2.62744 6.95718L5.36536 8.96509C6.10619 7.13093 7.90036 5.83593 9.99994 5.83593C11.2745 5.83593 12.4341 6.31676 13.317 7.10218L15.6741 4.74509C14.1858 3.35801 12.1949 2.50259 9.99994 2.50259C6.79911 2.50259 4.02327 4.30968 2.62744 6.95718Z" fill="#FF3D00"/>
<path d="M9.9998 19.1693C12.1523 19.1693 14.1081 18.3455 15.5869 17.0059L13.0077 14.8234C12.1711 15.4572 11.1311 15.8359 9.9998 15.8359C7.8323 15.8359 5.99189 14.4539 5.29855 12.5251L2.58105 14.6189C3.96022 17.3176 6.76105 19.1693 9.9998 19.1693Z" fill="#4CAF50"/>
<path d="M18.1712 9.20386H17.5V9.16928H10V12.5026H14.7096C14.3796 13.4347 13.78 14.2384 13.0067 14.8239L15.5871 17.0055C15.4046 17.1714 18.3333 15.0026 18.3333 10.8359C18.3333 10.2772 18.2758 9.73178 18.1712 9.20386Z" fill="#1976D2"/>
</svg>
