<svg width="20" height="20" viewBox="0 0 20 20" fill="none" xmlns="http://www.w3.org/2000/svg">
<path d="M3.24219 15C2.73438 13.7109 1.875 11.3527 1.875 10C1.875 5.5125 5.8332 1.875 10 1.875C14.1668 1.875 18.125 5.5125 18.125 10C18.125 11.3527 17.2266 13.7891 16.7578 15" stroke="white" stroke-width="1.25" stroke-linecap="round" stroke-linejoin="round"/>
<path d="M4.23384 10.5519L3.69908 10.8644C2.51822 11.5559 2.4608 13.693 3.56705 15.6379C4.6733 17.5828 6.53072 18.5992 7.71158 17.9082L8.24634 17.5957C8.39397 17.5078 8.48973 17.3808 8.53364 17.2146C8.57754 17.0485 8.55704 16.8908 8.47213 16.7414L5.07798 10.7812C4.99377 10.6322 4.86905 10.5352 4.70381 10.4903C4.53857 10.4454 4.38191 10.466 4.23384 10.5519ZM15.7659 10.5519L16.3006 10.8644C17.4815 11.5555 17.5405 13.6926 16.4327 15.6375C15.3249 17.5824 13.469 18.5988 12.2881 17.9078L11.7534 17.5953C11.6058 17.5074 11.51 17.3804 11.4661 17.2143C11.4222 17.0481 11.4427 16.8904 11.5276 16.741L14.9217 10.7812C15.0059 10.6322 15.1307 10.5352 15.2959 10.4903C15.4612 10.4454 15.6178 10.466 15.7659 10.5519Z" stroke="white" stroke-width="1.25"/>
</svg>
