<svg width="20" height="21" viewBox="0 0 20 21" fill="none" xmlns="http://www.w3.org/2000/svg">
<path d="M10.2172 4.45625C10.1568 4.39846 10.0848 4.36957 10.0012 4.36957C9.91757 4.36957 9.84557 4.39846 9.78516 4.45625L2.59375 11.3262C2.56289 11.3557 2.53908 11.3901 2.52233 11.4294C2.50557 11.4686 2.49722 11.5096 2.49727 11.5523L2.49609 18C2.49609 18.3452 2.61813 18.6398 2.86221 18.8839C3.10629 19.128 3.40092 19.25 3.74609 19.25H7.5C7.67259 19.25 7.8199 19.189 7.94194 19.0669C8.06398 18.9449 8.125 18.7976 8.125 18.625V13.3125C8.125 13.2262 8.15551 13.1525 8.21653 13.0915C8.27755 13.0305 8.35121 13 8.4375 13H11.5625C11.6488 13 11.7225 13.0305 11.7835 13.0915C11.8445 13.1525 11.875 13.2262 11.875 13.3125V18.625C11.875 18.7976 11.936 18.9449 12.0581 19.0669C12.1801 19.189 12.3274 19.25 12.5 19.25H16.2523C16.5975 19.25 16.8921 19.128 17.1362 18.8839C17.3803 18.6398 17.5023 18.3452 17.5023 18V11.5523C17.5024 11.5096 17.494 11.4686 17.4773 11.4294C17.4605 11.3901 17.4367 11.3557 17.4059 11.3262L10.2172 4.45625Z" fill="white"/>
<path d="M19.1762 10.0371L16.2543 7.2418V3C16.2543 2.82741 16.1933 2.6801 16.0713 2.55806C15.9492 2.43602 15.8019 2.375 15.6293 2.375H13.7543C13.5817 2.375 13.4344 2.43602 13.3124 2.55806C13.1903 2.6801 13.1293 2.82741 13.1293 3V4.25L10.8668 2.08672C10.6551 1.87266 10.3402 1.75 10 1.75C9.66095 1.75 9.34689 1.87266 9.13517 2.08711L0.826577 10.0363C0.583609 10.2707 0.55314 10.6562 0.774234 10.9102C0.891389 11.0454 1.03934 11.1171 1.21808 11.1253C1.39682 11.1334 1.55069 11.0755 1.6797 10.9516L9.78517 3.20625C9.84558 3.14846 9.91759 3.11957 10.0012 3.11957C10.0848 3.11957 10.1568 3.14846 10.2172 3.20625L18.3235 10.9516C18.4478 11.0708 18.596 11.1287 18.7682 11.1253C18.9404 11.122 19.0863 11.0583 19.2059 10.9344C19.4457 10.6859 19.4258 10.2758 19.1762 10.0371Z" fill="white"/>
</svg>
