<svg width="16" height="17" viewBox="0 0 16 17" fill="none" xmlns="http://www.w3.org/2000/svg">
<path d="M14.3938 5.11092L11.0312 8.53592C11.0063 8.56092 11.0063 8.59842 11.0312 8.62342L13.3844 11.1297C13.5437 11.289 13.5437 11.5453 13.3844 11.7047C13.3062 11.7828 13.2 11.8234 13.0969 11.8234C12.9937 11.8234 12.8875 11.7828 12.8094 11.7047L10.4656 9.2078C10.4406 9.1828 10.4 9.1828 10.375 9.2078L9.80313 9.78905C9.325 10.2734 8.69063 10.5422 8.00938 10.5453C7.31875 10.5484 6.6625 10.2578 6.17813 9.76718L5.62813 9.2078C5.60313 9.1828 5.5625 9.1828 5.5375 9.2078L3.19375 11.7047C3.11563 11.7828 3.00938 11.8234 2.90625 11.8234C2.80313 11.8234 2.69688 11.7828 2.61875 11.7047C2.45938 11.5453 2.45938 11.2891 2.61875 11.1297L4.97188 8.62343C4.99375 8.59843 4.99375 8.56093 4.97188 8.53593L1.60625 5.11092C1.56563 5.0703 1.5 5.09842 1.5 5.15467V12.0078C1.5 12.5578 1.95 13.0078 2.5 13.0078H13.5C14.05 13.0078 14.5 12.5578 14.5 12.0078V5.15467C14.5 5.09842 14.4312 5.07342 14.3938 5.11092Z" fill="white"/>
<path d="M7.9998 9.72969C8.4623 9.72969 8.89668 9.54844 9.22168 9.21719L14.1248 4.22656C13.9529 4.08906 13.7404 4.00781 13.5061 4.00781H2.49668C2.2623 4.00781 2.04668 4.08906 1.87793 4.22656L6.78105 9.21719C7.10293 9.54531 7.5373 9.72969 7.9998 9.72969Z" fill="white"/>
</svg>
