<svg width="21" height="21" viewBox="0 0 21 21" fill="none" xmlns="http://www.w3.org/2000/svg">
<path d="M4.14062 19.875H2.89062C2.63174 19.875 2.41077 19.7835 2.22771 19.6004C2.04465 19.4174 1.95312 19.1964 1.95312 18.9375V13.3125C1.95312 13.0536 2.04465 12.8326 2.22771 12.6496C2.41077 12.4665 2.63174 12.375 2.89062 12.375H4.14062C4.39951 12.375 4.62048 12.4665 4.80354 12.6496C4.9866 12.8326 5.07812 13.0536 5.07812 13.3125V18.9375C5.07812 19.1964 4.9866 19.4174 4.80354 19.6004C4.62048 19.7835 4.39951 19.875 4.14062 19.875ZM12.8906 19.875H11.6406C11.3817 19.875 11.1608 19.7835 10.9777 19.6004C10.7947 19.4174 10.7031 19.1964 10.7031 18.9375V9.5625C10.7031 9.30362 10.7947 9.08265 10.9777 8.89959C11.1608 8.71653 11.3817 8.625 11.6406 8.625H12.8906C13.1495 8.625 13.3705 8.71653 13.5535 8.89959C13.7366 9.08265 13.8281 9.30362 13.8281 9.5625V18.9375C13.8281 19.1964 13.7366 19.4174 13.5535 19.6004C13.3705 19.7835 13.1495 19.875 12.8906 19.875ZM17.2656 19.875H16.0156C15.7567 19.875 15.5358 19.7835 15.3527 19.6004C15.1697 19.4174 15.0781 19.1964 15.0781 18.9375V5.1875C15.0781 4.92862 15.1697 4.70765 15.3527 4.52459C15.5358 4.34153 15.7567 4.25 16.0156 4.25H17.2656C17.5245 4.25 17.7455 4.34153 17.9285 4.52459C18.1116 4.70765 18.2031 4.92862 18.2031 5.1875V18.9375C18.2031 19.1964 18.1116 19.4174 17.9285 19.6004C17.7455 19.7835 17.5245 19.875 17.2656 19.875ZM8.51562 19.875H7.26562C7.00674 19.875 6.78577 19.7835 6.60271 19.6004C6.41965 19.4174 6.32812 19.1964 6.32812 18.9375V2.0625C6.32812 1.80362 6.41965 1.58265 6.60271 1.39959C6.78577 1.21653 7.00674 1.125 7.26562 1.125H8.51562C8.77451 1.125 8.99548 1.21653 9.17854 1.39959C9.3616 1.58265 9.45312 1.80362 9.45312 2.0625V18.9375C9.45312 19.1964 9.3616 19.4174 9.17854 19.6004C8.99548 19.7835 8.77451 19.875 8.51562 19.875Z" fill="white" fill-opacity="0.701961"/>
</svg>
