<svg width="32" height="32" viewBox="0 0 32 32" fill="none" xmlns="http://www.w3.org/2000/svg">
<path d="M12.1765 31C11.8198 31.0003 11.5267 30.8639 11.2972 30.5909C11.0676 30.3179 10.9837 30.0057 11.0452 29.6544V29.6475L12.8021 20H6.00025C5.80758 20 5.62978 19.9486 5.46683 19.8458C5.30388 19.743 5.1809 19.6047 5.0979 19.4308C5.01491 19.2569 4.98468 19.0743 5.00722 18.883C5.02977 18.6916 5.10161 18.5211 5.22275 18.3713L18.9209 1.4375C19.0811 1.23412 19.2865 1.09992 19.5371 1.0349C19.7878 0.969892 20.0325 0.987311 20.2714 1.08716C20.5103 1.18701 20.6946 1.34895 20.8244 1.57298C20.9542 1.797 21.003 2.03747 20.9709 2.29438C20.9709 2.31313 20.9659 2.33125 20.9627 2.35L19.1996 12H26.0002C26.1929 12 26.3707 12.0514 26.5337 12.1542C26.6966 12.257 26.8196 12.3953 26.9026 12.5692C26.9856 12.7431 27.0158 12.9257 26.9933 13.117C26.9707 13.3084 26.8989 13.4789 26.7777 13.6288L13.0777 30.5625C12.9687 30.7003 12.8352 30.8075 12.6771 30.8842C12.5191 30.961 12.3522 30.9996 12.1765 31Z" fill="white"/>
</svg>
