<svg width="32" height="32" viewBox="0 0 32 32" fill="none" xmlns="http://www.w3.org/2000/svg">
<path d="M16.5 30C12.4959 30 9.07825 28.5844 6.24695 25.7531C3.41565 22.9218 2 19.5041 2 15.5C2 9.625 5.375 4.35751 10.6006 2.08313C10.7891 2.001 10.9843 1.97906 11.1863 2.01732C11.3882 2.05558 11.5619 2.14739 11.7073 2.29274C11.8526 2.4381 11.9444 2.61177 11.9827 2.81374C12.0209 3.01572 11.999 3.21093 11.9169 3.39938C11.3169 4.77688 11 6.54125 11 8.5C11 15.3925 16.6075 21 23.5 21C25.4587 21 27.2231 20.6831 28.6006 20.0831C28.7891 20.001 28.9843 19.9791 29.1863 20.0173C29.3882 20.0556 29.5619 20.1474 29.7073 20.2927C29.8526 20.4381 29.9444 20.6118 29.9827 20.8137C30.0209 21.0157 29.999 21.2109 29.9169 21.3994C27.6425 26.625 22.375 30 16.5 30Z" fill="white" fill-opacity="0.4"/>
</svg>
