<svg width="20" height="20" viewBox="0 0 20 20" fill="none" xmlns="http://www.w3.org/2000/svg">
<path d="M12.5004 15V15.625C12.5004 16.3154 12.2564 16.9046 11.7682 17.3928C11.28 17.8809 10.6908 18.125 10.0004 18.125C9.31008 18.125 8.72083 17.8809 8.23267 17.3928C7.74451 16.9046 7.50044 16.3154 7.50044 15.625V15M16.7067 13.7277C15.7036 12.5 14.9954 11.875 14.9954 8.49023C14.9954 5.39062 13.4125 4.28633 12.1098 3.75C11.9368 3.67891 11.7739 3.51562 11.7211 3.33789C11.4926 2.56016 10.852 1.875 10.0004 1.875C9.14888 1.875 8.50786 2.56055 8.28169 3.33867C8.22895 3.51836 8.06606 3.67891 7.89302 3.75C6.58872 4.28711 5.00747 5.3875 5.00747 8.49023C5.00552 11.875 4.29731 12.5 3.29419 13.7277C2.87856 14.2363 3.24262 15 3.96958 15H16.0352C16.7582 15 17.12 14.234 16.7067 13.7277Z" stroke="white" stroke-width="1.25" stroke-linecap="round" stroke-linejoin="round"/>
</svg>
