<svg width="34" height="34" viewBox="0 0 34 34" fill="none" xmlns="http://www.w3.org/2000/svg">
<path d="M24.5126 7.62207C19.3938 3.41251 11.8316 4.14961 7.62207 9.26844L7.61064 9.28235C3.40108 14.4012 4.13571 21.938 9.25455 26.1475L9.26845 26.159C14.3873 30.3685 21.938 29.6453 26.1475 24.5265L26.159 24.5126C30.3685 19.3937 29.6453 11.8431 24.5265 7.6335L24.5126 7.62207Z" fill="white" fill-opacity="0.1"/>
<path d="M7.62207 9.26844C11.8316 4.14961 19.3938 3.41251 24.5126 7.62207C29.6314 11.8316 30.3685 19.3937 26.159 24.5126C21.9494 29.6314 14.3873 30.3685 9.26845 26.159C4.14961 21.9494 3.41251 14.3873 7.62207 9.26844ZM24.2498 7.94167C19.3074 3.87727 12.0061 4.58896 7.94167 9.53127C3.87727 14.4736 4.58896 21.775 9.53128 25.8394C14.4736 29.9038 21.775 29.1921 25.8394 24.2498C29.9038 19.3074 29.1921 12.0061 24.2498 7.94167Z" fill="white" fill-opacity="0.2"/>
<mask id="mask0_37_198" style="mask-type:luminance" maskUnits="userSpaceOnUse" x="7" y="7" width="20" height="20">
<path d="M15.9819 7.57161L26.2092 15.9822L17.7986 26.2094L7.57138 17.7989L15.9819 7.57161Z" fill="white"/>
</mask>
<g mask="url(#mask0_37_198)">
<path d="M23.1374 16.1346L16.4257 10.6151C16.1167 10.3615 15.7633 10.2541 15.3654 10.2929C14.9675 10.3317 14.6415 10.5053 14.3872 10.8138L10.4448 15.6078C10.1912 15.9169 10.0838 16.2703 10.1226 16.6682C10.1614 17.0661 10.335 17.3921 10.6435 17.6464L17.3551 23.1658C17.6641 23.4194 18.0176 23.5268 18.4155 23.488C18.8133 23.4492 19.1394 23.2756 19.3936 22.9671L23.3361 18.1731C23.5897 17.864 23.6971 17.5106 23.6583 17.1127C23.6195 16.7149 23.4459 16.3888 23.1374 16.1346ZM21.3325 17.7519L16.6163 17.6237C16.5217 17.621 16.4378 17.5897 16.3648 17.5296C16.2917 17.4695 16.2448 17.3933 16.224 17.3011L15.1874 12.6984C15.1604 12.5861 15.1774 12.481 15.2384 12.3831C15.2994 12.2851 15.3861 12.2234 15.4987 12.198C15.6113 12.1727 15.7162 12.1911 15.8133 12.2535C15.9104 12.3158 15.9708 12.4035 15.9946 12.5164L16.9606 16.8052L21.3551 16.9247C21.4682 16.9294 21.5633 16.9731 21.6405 17.0558C21.7177 17.1385 21.7547 17.2364 21.7517 17.3495C21.7486 17.4626 21.7062 17.5583 21.6246 17.6366C21.543 17.715 21.4456 17.7534 21.3325 17.7519Z" fill="white"/>
</g>
</svg>
