<svg width="137" height="137" viewBox="0 0 137 137" fill="none" xmlns="http://www.w3.org/2000/svg">
<g opacity="0.3">
<g filter="url(#filter0_f_38_281)">
<path d="M50 60.7546C45.5817 70.7949 50.1394 82.516 60.1797 86.9343L60.207 86.9463C70.2473 91.3646 81.9291 86.8222 86.3474 76.7819L86.3594 76.7546C90.7777 66.7143 86.2473 55.0052 76.207 50.5869L76.1797 50.5749C66.1394 46.1566 54.4303 50.687 50.012 60.7273L50 60.7546Z" fill="#5E17EB"/>
</g>
</g>
<path d="M51.6667 56.9672C46.3279 69.0993 51.835 83.2622 63.9671 88.601L64.0001 88.6155C76.1322 93.9542 90.2477 88.4656 95.5865 76.3334L95.601 76.3005C100.94 64.1683 95.4656 50.02 83.3334 44.6812L83.3005 44.6667C71.1683 39.3279 57.0199 44.802 51.6812 56.9342L51.6667 56.9672Z" fill="white" fill-opacity="0.1"/>
<path d="M63.9671 88.601C51.835 83.2622 46.3279 69.0993 51.6667 56.9672C57.0054 44.835 71.1683 39.3279 83.3005 44.6667C95.4326 50.0055 100.94 64.1683 95.601 76.3005C90.2622 88.4326 76.0993 93.9397 63.9671 88.601ZM52.4242 57.3005C47.2695 69.0143 52.5867 82.6888 64.3005 87.8435C76.0143 92.9982 89.6888 87.681 94.8435 75.9672C99.9981 64.2534 94.681 50.5788 82.9672 45.4242C71.2534 40.2695 57.5788 45.5867 52.4242 57.3005Z" fill="white" fill-opacity="0.2"/>
<mask id="mask0_38_281" style="mask-type:luminance" maskUnits="userSpaceOnUse" x="56" y="49" width="36" height="36">
<path d="M56.1807 73.4203L66.8473 49.1807L91.0869 59.8474L80.4203 84.087L56.1807 73.4203Z" fill="white"/>
</mask>
<g mask="url(#mask0_38_281)">
<path d="M67.8838 51.8409C67.656 51.9295 67.4705 52.0728 67.3274 52.271C67.1843 52.4691 67.1065 52.6903 67.094 52.9344L65.9283 75.0273L65.9266 75.0311C65.9142 75.2927 65.9781 75.534 66.1185 75.7551C66.2588 75.9762 66.4499 76.1368 66.6919 76.237C66.9338 76.3371 67.1825 76.3585 67.438 76.3012C67.6936 76.244 67.9093 76.1184 68.0854 75.9246L68.1002 75.9079L73.7362 70.6292C73.8322 70.5174 73.8939 70.3892 73.9213 70.2445C73.9488 70.0998 73.9384 69.9578 73.8901 69.8187L68.76 55.1085C68.7234 55.0143 68.7254 54.921 68.7661 54.8286C68.8067 54.7362 68.8742 54.6716 68.9683 54.635C69.0624 54.5984 69.1557 54.6005 69.2481 54.6412C69.3406 54.6819 69.4051 54.7492 69.4417 54.8434L75.5916 69.1536C75.65 69.2888 75.7381 69.4004 75.8562 69.4886C75.9741 69.5768 76.1062 69.6296 76.2525 69.6472L83.9784 69.7327C83.9891 69.734 83.9988 69.7349 84.0093 69.7355C84.5148 69.7772 84.9932 69.53 85.218 69.0756L85.2388 69.0283C85.3455 68.7895 85.3758 68.5414 85.3297 68.2839C85.2835 68.0264 85.169 67.8042 84.9861 67.6173L69.2066 52.1184C69.0329 51.9456 68.8261 51.8341 68.5863 51.7838C68.3465 51.7335 68.1123 51.7525 67.8838 51.8409Z" fill="white"/>
</g>
<defs>
<filter id="filter0_f_38_281" x="0.3125" y="0.882983" width="135.739" height="135.753" filterUnits="userSpaceOnUse" color-interpolation-filters="sRGB">
<feFlood flood-opacity="0" result="BackgroundImageFix"/>
<feBlend mode="normal" in="SourceGraphic" in2="BackgroundImageFix" result="shape"/>
<feGaussianBlur stdDeviation="24" result="effect1_foregroundBlur_38_281"/>
</filter>
</defs>
</svg>
