<svg width="21" height="20" viewBox="0 0 21 20" fill="none" xmlns="http://www.w3.org/2000/svg">
<g clip-path="url(#clip0_277_325)">
<path d="M2.19531 7.5H19.6953M18.1328 16.875H3.75781C3.32634 16.875 2.95806 16.7225 2.65296 16.4174C2.34786 16.1123 2.19531 15.744 2.19531 15.3125V4.6875C2.19531 4.25603 2.34786 3.88774 2.65296 3.58265C2.95806 3.27755 3.32634 3.125 3.75781 3.125H6.72227C6.87652 3.125 7.02747 3.14736 7.1751 3.19207C7.32273 3.23678 7.46072 3.30192 7.58906 3.3875L8.67656 4.1125C8.8049 4.19808 8.94289 4.26322 9.09052 4.30793C9.23816 4.35264 9.3891 4.375 9.54336 4.375H18.1328C18.5643 4.375 18.9326 4.52755 19.2377 4.83265C19.5428 5.13774 19.6953 5.50603 19.6953 5.9375V15.3125C19.6953 15.744 19.5428 16.1123 19.2377 16.4174C18.9326 16.7225 18.5643 16.875 18.1328 16.875Z" stroke="white" stroke-width="1.25" stroke-linecap="round" stroke-linejoin="round"/>
</g>
<defs>
<clipPath id="clip0_277_325">
<rect width="20" height="20" fill="white" transform="translate(0.945312)"/>
</clipPath>
</defs>
</svg>
