<svg width="32" height="32" viewBox="0 0 32 32" fill="none" xmlns="http://www.w3.org/2000/svg">
<path d="M4.80194 30C4.35942 29.9979 3.98221 29.8399 3.67034 29.526C3.35846 29.212 3.20295 28.8338 3.20382 28.3913C3.20568 28.3105 3.21289 28.2302 3.22544 28.1503C3.238 28.0705 3.25579 27.9918 3.27882 27.9144L4.43007 23.75C4.47819 23.5963 4.42382 23.4413 4.35319 23.3188L4.33944 23.2938C4.33444 23.2856 4.31069 23.2525 4.29382 23.2281C4.27694 23.2038 4.25757 23.1775 4.24007 23.1519L4.22819 23.135C3.50136 22.0334 2.94827 20.8505 2.5689 19.5864C2.18954 18.3224 1.99993 17.0304 2.00007 15.7106C1.98882 12.1113 3.39694 8.71063 5.96632 6.13063C8.62507 3.46688 12.1813 2 15.9888 2C17.6038 1.9992 19.1733 2.26593 20.6974 2.80018C22.2215 3.33443 23.614 4.10604 24.8751 5.115C27.3407 7.09938 29.0544 9.865 29.7007 12.9075C29.8002 13.3696 29.8749 13.8357 29.9248 14.3058C29.9747 14.7759 29.9996 15.2473 29.9994 15.72C29.9994 19.4031 28.5844 22.8625 26.0144 25.4619C23.4219 28.0869 19.9407 29.5281 16.2126 29.5281C14.9001 29.5281 13.2207 29.1931 12.4144 28.9656C11.4444 28.6944 10.5251 28.3406 10.4238 28.3031C10.3702 28.2826 10.3152 28.2671 10.2588 28.2566C10.2024 28.2461 10.1456 28.2408 10.0882 28.2406C10.026 28.2402 9.96434 28.2461 9.9033 28.2582C9.84226 28.2703 9.78306 28.2884 9.72569 28.3125L9.67256 28.3331L5.45506 29.8569C5.35149 29.9005 5.24483 29.9343 5.13506 29.9584C5.02529 29.9824 4.91425 29.9963 4.80194 30Z" fill="white" fill-opacity="0.4"/>
</svg>
