<svg width="21" height="21" viewBox="0 0 21 21" fill="none" xmlns="http://www.w3.org/2000/svg">
<path d="M18.1719 3.625H15.8242C15.7811 3.625 15.7442 3.60975 15.7137 3.57924C15.6832 3.54873 15.668 3.5119 15.668 3.46875V2.99688C15.6671 2.65231 15.5447 2.35835 15.3008 2.11501C15.0568 1.87167 14.7625 1.75 14.418 1.75L5.67617 1.76016C5.33198 1.7608 5.03818 1.88279 4.79477 2.12613C4.55135 2.36947 4.42927 2.66323 4.42852 3.00742V3.46875C4.42852 3.5119 4.41326 3.54873 4.38275 3.57924C4.35224 3.60975 4.31541 3.625 4.27227 3.625H1.92188C1.74929 3.625 1.60197 3.68602 1.47993 3.80806C1.35789 3.9301 1.29688 4.07741 1.29688 4.25V4.875C1.29688 7.00508 2.46875 9.26758 4.28594 9.77148C4.3407 9.78673 4.38755 9.81506 4.4265 9.85646C4.46545 9.89787 4.49086 9.94636 4.50273 10.002C4.72812 11.0523 5.42148 12.0527 6.51094 12.8773C7.32773 13.4957 8.30195 13.9516 9.17773 14.1461C9.24904 14.1621 9.30755 14.1986 9.35324 14.2556C9.39894 14.3126 9.42182 14.3777 9.42188 14.4508V17.8438C9.42187 17.8869 9.40662 17.9237 9.37611 17.9542C9.3456 17.9847 9.30877 18 9.26562 18H6.93945C6.60312 18 6.31445 18.2586 6.29766 18.5949C6.28907 18.7732 6.34634 18.9269 6.46946 19.0562C6.59259 19.1854 6.74339 19.25 6.92188 19.25H13.1543C13.4906 19.25 13.7793 18.9914 13.7961 18.6551C13.8047 18.4768 13.7474 18.3231 13.6243 18.1938C13.5012 18.0646 13.3504 18 13.1719 18H10.8281C10.785 18 10.7481 17.9847 10.7176 17.9542C10.6871 17.9237 10.6719 17.8869 10.6719 17.8438V14.4508C10.6719 14.3777 10.6948 14.3126 10.7405 14.2556C10.7862 14.1986 10.8447 14.1621 10.916 14.1461C11.7918 13.9508 12.766 13.4957 13.5828 12.8773C14.6723 12.0527 15.3656 11.0523 15.591 10.002C15.6029 9.94636 15.6283 9.89787 15.6672 9.85646C15.7062 9.81506 15.753 9.78673 15.8078 9.77149C17.625 9.26758 18.7969 7.00508 18.7969 4.875V4.25C18.7969 4.07741 18.7359 3.9301 18.6138 3.80806C18.4918 3.68602 18.3445 3.625 18.1719 3.625ZM4.42188 8.24297C4.42166 8.30299 4.39554 8.34796 4.34351 8.37787C4.29148 8.40779 4.23948 8.40774 4.1875 8.37773C3.78672 8.13906 3.49414 7.77734 3.32266 7.52266C2.85742 6.83164 2.58047 5.93398 2.54961 5.03711C2.54795 4.99282 2.56249 4.95473 2.59325 4.92282C2.624 4.89091 2.66154 4.87497 2.70586 4.875H4.26836C4.31151 4.875 4.34833 4.89025 4.37884 4.92076C4.40935 4.95127 4.42461 4.9881 4.42461 5.03125C4.42383 6.10352 4.42188 7.33086 4.42188 8.24297ZM16.7707 7.52266C16.5992 7.77734 16.307 8.13906 15.9062 8.37773C15.8542 8.40779 15.8021 8.4078 15.7501 8.37777C15.698 8.34775 15.6719 8.30268 15.6719 8.24258C15.6719 7.20703 15.6719 6.03047 15.6699 5.03125C15.6699 4.9881 15.6852 4.95127 15.7157 4.92076C15.7462 4.89025 15.783 4.875 15.8262 4.875H17.3887C17.433 4.87497 17.4705 4.89091 17.5013 4.92282C17.532 4.95472 17.5466 4.99282 17.5449 5.03711C17.5141 5.93398 17.2363 6.83164 16.7711 7.52266H16.7707Z" fill="white" fill-opacity="0.701961"/>
</svg>
