<svg width="21" height="21" viewBox="0 0 21 21" fill="none" xmlns="http://www.w3.org/2000/svg">
<path d="M11.1208 8.01211C10.4016 7.94109 9.7704 8.14375 9.22702 8.62011C8.68365 9.09647 8.40011 9.69576 8.3764 10.418C8.35269 11.1402 8.59632 11.7568 9.10729 12.2678C9.61825 12.7787 10.2348 13.0224 10.9571 12.9987C11.6793 12.975 12.2786 12.6914 12.7549 12.148C13.2313 11.6047 13.434 10.9734 13.3629 10.2543C13.3034 9.66154 13.063 9.15454 12.6418 8.73329C12.2205 8.31204 11.7135 8.07165 11.1208 8.01211ZM17.1403 10.5C17.1395 10.6359 17.1341 10.7716 17.1241 10.9071C17.1142 11.0426 17.0996 11.1776 17.0805 11.3121L18.8465 12.6973C18.9259 12.7631 18.9747 12.8468 18.9928 12.9483C19.0109 13.0498 18.994 13.1452 18.9422 13.2344L17.2715 16.125C17.2192 16.2133 17.1445 16.2744 17.0476 16.3082C16.9507 16.3421 16.8542 16.3408 16.7583 16.3043L15.0044 15.598C14.9061 15.5589 14.8045 15.5454 14.6995 15.5576C14.5944 15.5697 14.4985 15.606 14.4118 15.6664C14.2779 15.7586 14.1408 15.8455 14.0004 15.9273C13.8599 16.009 13.7166 16.0854 13.5704 16.1562C13.477 16.2016 13.3998 16.2663 13.3388 16.3503C13.2778 16.4343 13.2401 16.5277 13.2258 16.6305L12.9629 18.5012C12.9451 18.603 12.897 18.6877 12.8185 18.755C12.7401 18.8224 12.6492 18.8572 12.5458 18.8594H9.20435C9.10279 18.8576 9.01291 18.8243 8.93474 18.7594C8.85656 18.6946 8.80724 18.6124 8.78678 18.5129L8.52428 16.6449C8.50931 16.541 8.47068 16.4467 8.4084 16.3621C8.34611 16.2776 8.26755 16.2127 8.17271 16.1676C8.02666 16.0971 7.88367 16.0208 7.74373 15.9389C7.60379 15.8569 7.46736 15.7695 7.33443 15.6766C7.24797 15.6164 7.15242 15.5804 7.04776 15.5686C6.9431 15.5567 6.84191 15.5705 6.7442 15.6098L4.99068 16.3156C4.89477 16.3522 4.79835 16.3535 4.70143 16.3197C4.60451 16.286 4.52983 16.225 4.4774 16.1367L2.8067 13.2461C2.75483 13.1569 2.73795 13.0616 2.75604 12.96C2.77414 12.8584 2.82293 12.7748 2.9024 12.709L4.39498 11.5371C4.47805 11.4712 4.54037 11.3894 4.58195 11.2918C4.62352 11.1943 4.63933 11.0927 4.62935 10.9871C4.61529 10.8242 4.6067 10.6617 4.6067 10.4988C4.6067 10.3359 4.6149 10.1758 4.62935 10.0164C4.63824 9.91147 4.62166 9.81073 4.57961 9.71418C4.53757 9.61763 4.47511 9.53686 4.39224 9.47188L2.90045 8.3C2.82231 8.23393 2.7745 8.15047 2.75703 8.04964C2.73956 7.94881 2.75651 7.85414 2.80787 7.76562L4.47857 4.875C4.53095 4.78669 4.60559 4.72561 4.70252 4.69175C4.79944 4.6579 4.89589 4.65921 4.99185 4.6957L6.74576 5.40195C6.84399 5.44107 6.94563 5.45456 7.05067 5.44245C7.1557 5.43033 7.25159 5.39405 7.33834 5.33359C7.47218 5.24143 7.60931 5.15447 7.74975 5.07271C7.89019 4.99095 8.03352 4.91463 8.17975 4.84375C8.27311 4.79837 8.35029 4.7337 8.4113 4.64972C8.47232 4.56574 8.50997 4.47234 8.52428 4.36953L8.78717 2.49883C8.80497 2.39695 8.85311 2.31233 8.93157 2.24496C9.01003 2.17759 9.10096 2.14281 9.20435 2.14062H12.5458C12.6473 2.14238 12.7372 2.17569 12.8154 2.24056C12.8936 2.30543 12.9429 2.38761 12.9633 2.48711L13.2258 4.35508C13.2408 4.45904 13.2794 4.5533 13.3417 4.63787C13.404 4.72244 13.4826 4.78729 13.5774 4.83242C13.7235 4.90292 13.8664 4.97915 14.0064 5.06112C14.1463 5.14309 14.2828 5.23053 14.4157 5.32344C14.5021 5.38359 14.5977 5.41959 14.7024 5.43144C14.807 5.44328 14.9082 5.42955 15.0059 5.39023L16.7594 4.68438C16.8553 4.64785 16.9518 4.64648 17.0487 4.68026C17.1456 4.71404 17.2203 4.77505 17.2727 4.86328L18.9434 7.75391C18.9953 7.84308 19.0122 7.93845 18.9941 8.04001C18.976 8.14157 18.9272 8.22524 18.8477 8.29102L17.3551 9.46289C17.2717 9.52862 17.209 9.61028 17.1671 9.70786C17.1252 9.80545 17.1091 9.90713 17.1188 10.0129C17.1317 10.1746 17.1403 10.3371 17.1403 10.5Z" stroke="white" stroke-opacity="0.701961" stroke-width="1.25" stroke-linejoin="round"/>
</svg>
