<svg width="24" height="24" viewBox="0 0 24 24" fill="none" xmlns="http://www.w3.org/2000/svg">
<path d="M12 0C5.37257 0 0 5.37257 0 12V12.018C0 18.6454 5.35457 24 11.982 24H12C18.6274 24 24 18.6454 24 12.018V12C24 5.37257 18.6454 0 12.018 0H12Z" fill="white" fill-opacity="0.1"/>
<path d="M0 12C0 5.37257 5.37257 0 12 0C18.6274 0 24 5.37257 24 12C24 18.6274 18.6274 24 12 24C5.37257 24 0 18.6274 0 12ZM12 0.413793C5.6011 0.413793 0.413793 5.6011 0.413793 12C0.413793 18.3989 5.6011 23.5862 12 23.5862C18.3989 23.5862 23.5862 18.3989 23.5862 12C23.5862 5.6011 18.3989 0.413793 12 0.413793Z" fill="white" fill-opacity="0.2"/>
<mask id="mask0_37_186" style="mask-type:luminance" maskUnits="userSpaceOnUse" x="5" y="5" width="14" height="14">
<path d="M5.37939 5.37931H18.6208V18.6207H5.37939V5.37931Z" fill="white"/>
</mask>
<g mask="url(#mask0_37_186)">
<path d="M17.769 8.25905C17.7631 8.16388 17.7284 8.08071 17.6649 8.00954C17.6015 7.93837 17.5228 7.89438 17.4289 7.87758C15.2041 7.47879 14.2678 7.16689 12.2586 6.26276C12.0579 6.18801 11.9335 6.18931 11.7413 6.26276C9.73214 7.16793 8.79593 7.47827 6.57102 7.87758C6.47716 7.89438 6.3985 7.93837 6.33505 8.00954C6.2716 8.08071 6.23689 8.16388 6.23093 8.25905C6.13136 9.83922 6.34317 11.3108 6.86093 12.6336C7.07262 13.173 7.33383 13.6872 7.64458 14.1762C7.95532 14.6652 8.30988 15.1201 8.70826 15.5408C9.86352 16.7674 11.1445 17.4835 11.805 17.7546C11.8676 17.7801 11.9327 17.7929 12.0004 17.7929C12.068 17.7929 12.1331 17.7801 12.1958 17.7546C12.8941 17.4722 14.1274 16.7765 15.2917 15.5402C15.6901 15.1196 16.0446 14.6648 16.3553 14.1759C16.6661 13.6869 16.9273 13.1729 17.139 12.6336C17.6568 11.311 17.8686 9.83922 17.769 8.25905Z" fill="white"/>
</g>
</svg>
