<svg width="21" height="20" viewBox="0 0 21 20" fill="none" xmlns="http://www.w3.org/2000/svg">
<path d="M12.6484 13.125V14.6875C12.6484 15.119 12.4959 15.4873 12.1908 15.7924C11.8857 16.0975 11.5174 16.25 11.0859 16.25H4.83594C4.40447 16.25 4.03618 16.0975 3.73108 15.7924C3.42599 15.4873 3.27344 15.119 3.27344 14.6875V5.3125C3.27344 4.88103 3.42599 4.51274 3.73108 4.20765C4.03618 3.90255 4.40447 3.75 4.83594 3.75H10.7734C11.6363 3.75 12.6484 4.44961 12.6484 5.3125V6.875M15.1484 13.125L18.2734 10L15.1484 6.875M7.64844 10H17.6484" stroke="#FF6B8B" stroke-width="1.25" stroke-linecap="round" stroke-linejoin="round"/>
</svg>
