<svg width="21" height="20" viewBox="0 0 21 20" fill="none" xmlns="http://www.w3.org/2000/svg">
<path d="M4.80469 4.375L5.58594 16.875C5.62305 17.5973 6.14844 18.125 6.83594 18.125H14.0234C14.7137 18.125 15.2293 17.5973 15.2734 16.875L16.0547 4.375" stroke="white" stroke-width="1.25" stroke-linecap="round" stroke-linejoin="round"/>
<path d="M3.55469 4.375H17.3047H3.55469Z" fill="white"/>
<path d="M3.55469 4.375H17.3047" stroke="white" stroke-width="1.25" stroke-linecap="round"/>
<path d="M7.92969 4.375V2.8125C7.92893 2.55331 8.02019 2.33207 8.20347 2.14879C8.38675 1.96551 8.60799 1.87425 8.86719 1.875H11.9922C12.2514 1.87425 12.4726 1.96551 12.6559 2.14879C12.8392 2.33207 12.9304 2.55331 12.9297 2.8125V4.375M10.4297 6.875V15.625M7.61719 6.875L7.92969 15.625M13.2422 6.875L12.9297 15.625" stroke="white" stroke-width="1.25" stroke-linecap="round" stroke-linejoin="round"/>
</svg>
