<svg width="20" height="20" viewBox="0 0 20 20" fill="none" xmlns="http://www.w3.org/2000/svg">
<g clip-path="url(#clip0_48_3352)">
<path d="M10.1531 10.2699L8.45312 5.85039C8.42701 5.78251 8.38398 5.72798 8.32403 5.68681C8.26407 5.64563 8.19773 5.62504 8.125 5.62504C8.05227 5.62504 7.98593 5.64563 7.92597 5.6868C7.86602 5.72798 7.82299 5.78251 7.79687 5.85039L6.09687 10.2699C6.07902 10.3164 6.05251 10.3572 6.01733 10.3923C5.98216 10.4275 5.94135 10.454 5.89492 10.4719L1.47539 12.1719C1.40751 12.198 1.35298 12.241 1.31181 12.301C1.27063 12.3609 1.25004 12.4273 1.25004 12.5C1.25004 12.5727 1.27063 12.6391 1.31181 12.699C1.35298 12.759 1.40751 12.802 1.47539 12.8281L5.89492 14.5281C5.94135 14.546 5.98216 14.5725 6.01733 14.6077C6.05251 14.6428 6.07902 14.6836 6.09688 14.7301L7.79688 19.1496C7.82299 19.2175 7.86602 19.272 7.92597 19.3132C7.98593 19.3544 8.05227 19.375 8.125 19.375C8.19773 19.375 8.26407 19.3544 8.32403 19.3132C8.38398 19.272 8.42701 19.2175 8.45313 19.1496L10.1531 14.7301C10.171 14.6836 10.1975 14.6428 10.2327 14.6077C10.2678 14.5725 10.3086 14.546 10.3551 14.5281L14.7746 12.8281C14.8425 12.802 14.897 12.759 14.9382 12.699C14.9794 12.6391 15 12.5727 15 12.5C15 12.4273 14.9794 12.3609 14.9382 12.301C14.897 12.241 14.8425 12.198 14.7746 12.1719L10.3551 10.4719C10.3086 10.454 10.2678 10.4275 10.2327 10.3923C10.1975 10.3572 10.171 10.3164 10.1531 10.2699ZM4.21875 2.65625L3.4375 0.625L2.65625 2.65625L0.625 3.4375L2.65625 4.21875L3.4375 6.25L4.21875 4.21875L6.25 3.4375L4.21875 2.65625ZM16.6668 4.5832L15.625 1.875L14.5832 4.5832L11.875 5.625L14.5832 6.6668L15.625 9.375L16.6668 6.6668L19.375 5.625L16.6668 4.5832Z" stroke="white" stroke-width="1.25" stroke-linejoin="round"/>
</g>
<defs>
<clipPath id="clip0_48_3352">
<rect width="20" height="20" fill="white"/>
</clipPath>
</defs>
</svg>
