<svg width="20" height="16" viewBox="0 0 20 16" fill="none" xmlns="http://www.w3.org/2000/svg">
<path d="M14.8528 5.60146L9.13524 10.4814C8.98937 10.6052 8.77589 10.6052 8.63002 10.4814L0.268976 3.3426C-0.015655 3.10051 0.151566 2.62726 0.521587 2.62726H12.7785C12.7038 2.802 12.6629 2.99312 12.6593 3.19516C12.6487 3.72666 12.9084 4.21083 13.3513 4.48932L14.7069 5.33935L14.8528 5.60146Z" fill="#8B5CF6"/>
<path d="M17.1187 15.9165H0.396592C0.026571 15.9165 -0.14065 15.4433 0.142202 15.2012L5.92378 10.2666C6.06965 10.141 6.28312 10.141 6.429 10.2666L7.93043 11.548C8.16169 11.7464 8.45522 11.8556 8.75764 11.8556C9.06006 11.8556 9.35358 11.7464 9.58485 11.548L11.0863 10.2666C11.2322 10.141 11.4456 10.141 11.5915 10.2666L17.3731 15.2012C17.6559 15.4433 17.4887 15.9165 17.1187 15.9165Z" fill="#8B5CF6"/>
<path d="M5.08423 9.70234L0.654652 13.6904C0.400263 13.9197 0 13.7341 0 13.3882V5.60872C0 5.26652 0.391368 5.07904 0.647536 5.29929L5.07711 9.09075C5.26212 9.24911 5.26568 9.54034 5.08423 9.70416V9.70234Z" fill="#8B5CF6"/>
<path d="M17.64 7.51446V13.3882C17.64 13.7341 17.2397 13.9197 16.9853 13.6904L12.5558 9.70234C12.3743 9.53852 12.3779 9.24911 12.5629 9.08893L15.3612 6.69537L15.548 7.03029C15.8059 7.49262 16.2898 7.78021 16.8092 7.78021C17.1134 7.78021 17.4016 7.68556 17.64 7.51446Z" fill="#8B5CF6"/>
<path d="M13.8367 2.90938L15.1727 2.13944C15.2563 2.09029 15.3257 2.02112 15.3755 1.9374L16.3023 0.359286C16.5176 -0.00839324 17.0388 -0.00839324 17.2541 0.359286L18.1969 1.9556C18.2467 2.03933 18.3161 2.10849 18.3997 2.15582L19.7179 2.91666C20.0826 3.1278 20.0968 3.66112 19.7428 3.89229L18.4193 4.75324C18.3463 4.80056 18.2841 4.86609 18.2396 4.94254L17.2861 6.58435C17.069 6.95931 16.5371 6.95385 16.3254 6.57525L15.4395 4.98804C15.3933 4.90431 15.3275 4.83515 15.2474 4.786L13.8171 3.88864C13.456 3.66112 13.4649 3.12052 13.8349 2.90756L13.8367 2.90938Z" fill="#8B5CF6"/>
</svg>
